<svg xmlns="http://www.w3.org/2000/svg" xmlns:xlink="http://www.w3.org/1999/xlink" width="1000" zoomAndPan="magnify" viewBox="0 0 750 149.999998" height="200" preserveAspectRatio="xMidYMid meet" version="1.0"><defs><g/><clipPath id="1d3ff8e19c"><path d="M 415 47 L 443.820312 47 L 443.820312 75 L 415 75 Z M 415 47 " clip-rule="nonzero"/></clipPath><clipPath id="57be6ff39b"><path d="M 333 46.070312 L 363 46.070312 L 363 75.320312 L 333 75.320312 Z M 333 46.070312 " clip-rule="nonzero"/></clipPath></defs><rect x="-75" width="900" fill="#ffffff" y="-15" height="179.999997" fill-opacity="1"/><rect x="-75" width="900" fill="#031e33" y="-15" height="179.999997" fill-opacity="1"/><g clip-path="url(#1d3ff8e19c)"><path fill="#fafafa" d="M 421.367188 60.886719 C 421.367188 65.566406 425.082031 69.214844 429.472656 69.214844 C 433.863281 69.214844 437.425781 65.566406 437.425781 60.886719 C 437.425781 56.207031 433.863281 52.628906 429.472656 52.628906 C 425.046875 52.628906 421.367188 56.207031 421.367188 60.886719 M 443.503906 60.886719 C 443.503906 68.570312 437.425781 74.46875 429.398438 74.46875 C 421.367188 74.46875 415.289062 68.609375 415.289062 60.886719 C 415.289062 53.125 421.367188 47.378906 429.398438 47.378906 C 437.425781 47.378906 443.503906 53.164062 443.503906 60.886719 " fill-opacity="1" fill-rule="nonzero"/></g><path fill="#fafafa" d="M 400.171875 52.554688 L 400.171875 59.097656 L 410.65625 59.097656 C 411.019531 59.097656 411.367188 59.242188 411.625 59.503906 C 411.882812 59.765625 412.027344 60.121094 412.027344 60.488281 C 412.027344 61.1875 412.027344 62.027344 412.027344 62.726562 C 412.027344 63.09375 411.882812 63.449219 411.625 63.710938 C 411.367188 63.972656 411.019531 64.117188 410.65625 64.117188 C 407.53125 64.117188 400.171875 64.117188 400.171875 64.117188 L 400.171875 72.808594 C 400.171875 73.578125 399.558594 74.199219 398.800781 74.199219 C 397.84375 74.199219 396.574219 74.199219 395.617188 74.199219 C 394.859375 74.199219 394.246094 73.578125 394.246094 72.808594 C 394.246094 68.210938 394.246094 53.558594 394.246094 48.960938 C 394.246094 48.191406 394.859375 47.570312 395.617188 47.570312 C 399.101562 47.570312 408.238281 47.570312 411.730469 47.570312 C 412.097656 47.570312 412.449219 47.71875 412.707031 47.980469 C 412.964844 48.246094 413.109375 48.601562 413.105469 48.972656 C 413.101562 49.660156 413.09375 50.484375 413.089844 51.171875 C 413.082031 51.9375 412.46875 52.554688 411.714844 52.554688 C 408.398438 52.554688 400.171875 52.554688 400.171875 52.554688 Z M 400.171875 52.554688 " fill-opacity="1" fill-rule="nonzero"/><path fill="#fafafa" d="M 387.582031 54.871094 C 387.34375 55.164062 387.003906 55.34375 386.632812 55.375 C 386.261719 55.40625 385.894531 55.28125 385.613281 55.035156 C 383.925781 53.527344 381.808594 52.589844 379.796875 52.589844 C 375.292969 52.589844 371.804688 56.128906 371.804688 60.769531 C 371.804688 65.414062 375.292969 68.988281 379.796875 68.988281 C 381.78125 68.988281 383.925781 68.128906 385.671875 66.726562 C 386.234375 66.273438 387.046875 66.339844 387.53125 66.875 C 388.046875 67.433594 388.679688 68.132812 389.191406 68.699219 C 389.445312 68.976562 389.574219 69.347656 389.554688 69.722656 C 389.53125 70.097656 389.363281 70.449219 389.078125 70.699219 C 386.386719 73.019531 382.867188 74.46875 379.496094 74.46875 C 371.652344 74.46875 365.726562 68.570312 365.726562 60.847656 C 365.726562 53.160156 371.765625 47.378906 379.71875 47.378906 C 383.050781 47.378906 386.527344 48.703125 389.078125 50.859375 C 389.652344 51.347656 389.726562 52.210938 389.253906 52.796875 C 388.753906 53.421875 388.109375 54.222656 387.582031 54.871094 Z M 387.582031 54.871094 " fill-opacity="1" fill-rule="nonzero"/><g clip-path="url(#57be6ff39b)"><path fill="#1b98f5" d="M 348.035156 46.066406 C 355.996094 46.066406 362.460938 52.621094 362.460938 60.695312 C 362.460938 68.769531 355.996094 75.320312 348.035156 75.320312 C 340.074219 75.320312 333.609375 68.769531 333.609375 60.695312 C 333.609375 52.621094 340.074219 46.066406 348.035156 46.066406 Z M 353.863281 65.863281 C 354.503906 65.210938 354.503906 64.152344 353.863281 63.5 C 352.570312 62.1875 350.492188 60.085938 349.199219 58.773438 C 348.554688 58.121094 347.511719 58.121094 346.867188 58.773438 C 345.574219 60.085938 343.5 62.1875 342.207031 63.5 C 341.5625 64.152344 341.5625 65.210938 342.207031 65.863281 C 343.5 67.175781 345.574219 69.277344 346.867188 70.589844 C 347.511719 71.242188 348.554688 71.242188 349.199219 70.589844 C 350.492188 69.277344 352.570312 67.175781 353.863281 65.863281 Z M 350.753906 54.179688 C 350.960938 53.972656 351.074219 53.6875 351.074219 53.394531 C 351.074219 53.097656 350.960938 52.8125 350.753906 52.605469 C 350.175781 52.019531 349.390625 51.222656 348.8125 50.636719 C 348.605469 50.425781 348.324219 50.308594 348.035156 50.308594 C 347.742188 50.308594 347.464844 50.425781 347.257812 50.636719 C 346.679688 51.222656 345.894531 52.019531 345.316406 52.605469 C 345.109375 52.8125 344.992188 53.097656 344.992188 53.394531 C 344.992188 53.6875 345.109375 53.972656 345.316406 54.179688 C 345.894531 54.765625 346.679688 55.5625 347.257812 56.152344 C 347.464844 56.359375 347.742188 56.476562 348.035156 56.476562 C 348.324219 56.476562 348.605469 56.359375 348.8125 56.152344 C 349.390625 55.5625 350.175781 54.765625 350.753906 54.179688 Z M 350.753906 54.179688 " fill-opacity="1" fill-rule="evenodd"/></g><path fill="#fafafa" d="M 325.199219 74.011719 C 324.769531 74.011719 324.363281 73.804688 324.101562 73.457031 C 321.917969 70.523438 311.796875 56.929688 311.796875 56.929688 L 311.796875 72.617188 C 311.796875 73.386719 311.179688 74.011719 310.421875 74.011719 C 309.535156 74.011719 308.390625 74.011719 307.503906 74.011719 C 306.746094 74.011719 306.128906 73.386719 306.128906 72.617188 C 306.128906 68.019531 306.128906 53.367188 306.128906 48.773438 C 306.128906 48.003906 306.746094 47.378906 307.503906 47.378906 C 308.574219 47.378906 310.011719 47.378906 310.847656 47.378906 C 311.28125 47.378906 311.683594 47.585938 311.945312 47.933594 C 314.132812 50.867188 324.289062 64.5 324.289062 64.5 L 324.289062 48.773438 C 324.289062 48.402344 324.433594 48.046875 324.691406 47.785156 C 324.949219 47.527344 325.300781 47.378906 325.664062 47.378906 C 326.539062 47.378906 327.667969 47.378906 328.542969 47.378906 C 328.910156 47.378906 329.257812 47.527344 329.515625 47.785156 C 329.773438 48.046875 329.917969 48.402344 329.917969 48.773438 C 329.917969 53.367188 329.917969 68.019531 329.917969 72.617188 C 329.917969 73.386719 329.304688 74.011719 328.542969 74.011719 C 327.476562 74.011719 326.039062 74.011719 325.199219 74.011719 Z M 325.199219 74.011719 " fill-opacity="1" fill-rule="nonzero"/><g fill="#ffffff" fill-opacity="1"><g transform="translate(323.659177, 109.220811)"><g><path d="M 0.53125 0 L 6.890625 -17.46875 L 9.421875 -17.46875 L 15.828125 0 L 13.515625 0 L 9.828125 -10.390625 C 9.585938 -11.046875 9.316406 -11.84375 9.015625 -12.78125 C 8.710938 -13.726562 8.347656 -14.941406 7.921875 -16.421875 L 8.375 -16.421875 C 7.945312 -14.929688 7.578125 -13.707031 7.265625 -12.75 C 6.960938 -11.800781 6.707031 -11.015625 6.5 -10.390625 L 2.859375 0 Z M 3.75 -4.875 L 3.75 -6.8125 L 12.625 -6.8125 L 12.625 -4.875 Z M 3.75 -4.875 "/></g></g><g transform="translate(340.018551, 109.220811)"><g><path d="M 4.234375 -17.46875 L 4.234375 0 L 2.03125 0 L 2.03125 -17.46875 Z M 4.234375 -17.46875 "/></g></g><g transform="translate(346.276363, 109.220811)"><g/></g><g transform="translate(352.8623, 109.220811)"><g><path d="M 1.015625 -15.515625 L 1.015625 -17.46875 L 14.28125 -17.46875 L 14.28125 -15.515625 L 8.765625 -15.515625 L 8.765625 0 L 6.5625 0 L 6.5625 -15.515625 Z M 1.015625 -15.515625 "/></g></g></g><g fill="#ffffff" fill-opacity="1"><g transform="translate(366.081049, 109.220811)"><g><path d="M 7.0625 0.28125 C 5.875 0.28125 4.835938 0.00390625 3.953125 -0.546875 C 3.066406 -1.109375 2.375 -1.894531 1.875 -2.90625 C 1.382812 -3.914062 1.140625 -5.082031 1.140625 -6.40625 C 1.140625 -7.75 1.382812 -8.925781 1.875 -9.9375 C 2.375 -10.945312 3.066406 -11.726562 3.953125 -12.28125 C 4.835938 -12.84375 5.875 -13.125 7.0625 -13.125 C 8.238281 -13.125 9.269531 -12.84375 10.15625 -12.28125 C 11.050781 -11.726562 11.742188 -10.945312 12.234375 -9.9375 C 12.734375 -8.925781 12.984375 -7.75 12.984375 -6.40625 C 12.984375 -5.082031 12.734375 -3.914062 12.234375 -2.90625 C 11.742188 -1.894531 11.050781 -1.109375 10.15625 -0.546875 C 9.269531 0.00390625 8.238281 0.28125 7.0625 0.28125 Z M 7.0625 -1.578125 C 7.914062 -1.578125 8.625 -1.796875 9.1875 -2.234375 C 9.757812 -2.671875 10.179688 -3.253906 10.453125 -3.984375 C 10.734375 -4.722656 10.875 -5.53125 10.875 -6.40625 C 10.875 -7.28125 10.734375 -8.085938 10.453125 -8.828125 C 10.179688 -9.566406 9.757812 -10.15625 9.1875 -10.59375 C 8.625 -11.039062 7.914062 -11.265625 7.0625 -11.265625 C 6.207031 -11.265625 5.5 -11.039062 4.9375 -10.59375 C 4.375 -10.15625 3.953125 -9.566406 3.671875 -8.828125 C 3.390625 -8.097656 3.25 -7.289062 3.25 -6.40625 C 3.25 -5.53125 3.390625 -4.722656 3.671875 -3.984375 C 3.953125 -3.253906 4.367188 -2.671875 4.921875 -2.234375 C 5.484375 -1.796875 6.195312 -1.578125 7.0625 -1.578125 Z M 7.0625 -1.578125 "/></g></g><g transform="translate(380.202142, 109.220811)"><g><path d="M 7.0625 0.28125 C 5.875 0.28125 4.835938 0.00390625 3.953125 -0.546875 C 3.066406 -1.109375 2.375 -1.894531 1.875 -2.90625 C 1.382812 -3.914062 1.140625 -5.082031 1.140625 -6.40625 C 1.140625 -7.75 1.382812 -8.925781 1.875 -9.9375 C 2.375 -10.945312 3.066406 -11.726562 3.953125 -12.28125 C 4.835938 -12.84375 5.875 -13.125 7.0625 -13.125 C 8.238281 -13.125 9.269531 -12.84375 10.15625 -12.28125 C 11.050781 -11.726562 11.742188 -10.945312 12.234375 -9.9375 C 12.734375 -8.925781 12.984375 -7.75 12.984375 -6.40625 C 12.984375 -5.082031 12.734375 -3.914062 12.234375 -2.90625 C 11.742188 -1.894531 11.050781 -1.109375 10.15625 -0.546875 C 9.269531 0.00390625 8.238281 0.28125 7.0625 0.28125 Z M 7.0625 -1.578125 C 7.914062 -1.578125 8.625 -1.796875 9.1875 -2.234375 C 9.757812 -2.671875 10.179688 -3.253906 10.453125 -3.984375 C 10.734375 -4.722656 10.875 -5.53125 10.875 -6.40625 C 10.875 -7.28125 10.734375 -8.085938 10.453125 -8.828125 C 10.179688 -9.566406 9.757812 -10.15625 9.1875 -10.59375 C 8.625 -11.039062 7.914062 -11.265625 7.0625 -11.265625 C 6.207031 -11.265625 5.5 -11.039062 4.9375 -10.59375 C 4.375 -10.15625 3.953125 -9.566406 3.671875 -8.828125 C 3.390625 -8.097656 3.25 -7.289062 3.25 -6.40625 C 3.25 -5.53125 3.390625 -4.722656 3.671875 -3.984375 C 3.953125 -3.253906 4.367188 -2.671875 4.921875 -2.234375 C 5.484375 -1.796875 6.195312 -1.578125 7.0625 -1.578125 Z M 7.0625 -1.578125 "/></g></g><g transform="translate(394.323235, 109.220811)"><g><path d="M 3.859375 -17.46875 L 3.859375 0 L 1.765625 0 L 1.765625 -17.46875 Z M 3.859375 -17.46875 "/></g></g><g transform="translate(399.948235, 109.220811)"><g><path d="M 3.734375 -4.65625 L 3.734375 -7.203125 L 4.0625 -7.203125 L 9.6875 -12.9375 L 12.296875 -12.9375 L 6.25 -6.796875 L 6.03125 -6.796875 Z M 1.765625 0 L 1.765625 -17.46875 L 3.859375 -17.46875 L 3.859375 0 Z M 10.046875 0 L 5.015625 -6.34375 L 6.5 -7.8125 L 12.703125 0 Z M 10.046875 0 "/></g></g><g transform="translate(412.897453, 109.220811)"><g><path d="M 1.765625 0 L 1.765625 -12.9375 L 3.859375 -12.9375 L 3.859375 0 Z M 2.8125 -15.140625 C 2.425781 -15.140625 2.085938 -15.273438 1.796875 -15.546875 C 1.515625 -15.828125 1.375 -16.15625 1.375 -16.53125 C 1.375 -16.914062 1.515625 -17.242188 1.796875 -17.515625 C 2.085938 -17.785156 2.425781 -17.921875 2.8125 -17.921875 C 3.21875 -17.921875 3.5625 -17.785156 3.84375 -17.515625 C 4.125 -17.242188 4.265625 -16.914062 4.265625 -16.53125 C 4.265625 -16.15625 4.125 -15.828125 3.84375 -15.546875 C 3.5625 -15.273438 3.21875 -15.140625 2.8125 -15.140625 Z M 2.8125 -15.140625 "/></g></g></g><g fill="#ffffff" fill-opacity="1"><g transform="translate(418.569327, 109.220811)"><g><path d="M 6.984375 -12.9375 L 6.984375 -11.15625 L 0.21875 -11.15625 L 0.21875 -12.9375 Z M 2.234375 -16.109375 L 4.328125 -16.109375 L 4.328125 -3.3125 C 4.328125 -2.75 4.441406 -2.34375 4.671875 -2.09375 C 4.898438 -1.84375 5.289062 -1.71875 5.84375 -1.71875 C 5.976562 -1.71875 6.148438 -1.726562 6.359375 -1.75 C 6.566406 -1.769531 6.753906 -1.789062 6.921875 -1.8125 L 7.265625 -0.0625 C 7.046875 0 6.800781 0.046875 6.53125 0.078125 C 6.257812 0.109375 6 0.125 5.75 0.125 C 4.625 0.125 3.753906 -0.15625 3.140625 -0.71875 C 2.535156 -1.289062 2.234375 -2.097656 2.234375 -3.140625 Z M 2.234375 -16.109375 "/></g></g></g></svg>
